# xmcd CD database file
#
# Track frame offsets:
#	150
#	16707
#	30183
#	42284
#	62099
#	84555
#	100488
#	116083
#	131224
#	140564
#	156109
#	175113
#	186666
#	203730
#	223653
#	233324
#	251535
#	263243
#	280732
#
# Disc length: 3954 seconds
#
# Revision: 1
# Processed by: cddbd v1.5.2PL0 Copyright (c) Steve Scherf et al.
# Submitted via: CDex 1.51
#
DISCID=0a0f7013
DTITLE=Joe Doucet - The Houston's Third Ward Blues
DYEAR=1900
DGENRE=Blues
TTITLE0=Got You On My Mind
TTITLE1=I Ain't Going Down
TTITLE2=Hey Leo
TTITLE3=Scratch My Back
TTITLE4=Recitation
TTITLE5=Bad Luck
TTITLE6=Matilda
TTITLE7=If You Love Me (Like You Say)
TTITLE8=Just A Little Bit
TTITLE9=Walking With Frankie
TTITLE10=Bird Without A Feather
TTITLE11=I've Got To Find My Baby
TTITLE12=Back At The Chicken Shack
TTITLE13=Rock Me Baby
TTITLE14=I Ain't Going Down (Acoustic Version)
TTITLE15=Reconsider Baby
TTITLE16=Pretty Girl
TTITLE17=Blues Shuffle
TTITLE18=I Got My Mojo Working
EXTD=
EXTT0=
EXTT1=
EXTT2=
EXTT3=
EXTT4=
EXTT5=
EXTT6=
EXTT7=
EXTT8=
EXTT9=
EXTT10=
EXTT11=
EXTT12=
EXTT13=
EXTT14=
EXTT15=
EXTT16=
EXTT17=
EXTT18=
PLAYORDER=
